
<svg version="1.1" class="card__content-icon"  xmlns="http://www.w3.org/2000/svg" xmlns:xlink="http://www.w3.org/1999/xlink" x="0px" y="0px"
	 viewBox="0 0 409.8 373" style="enable-background:new 0 0 409.8 373;" xml:space="preserve">
<g>
	<path d="M57.2,161.2c4.1-21.3,11-39.2,19.5-51.6c7.5-10.8,16-17.1,24.8-17.1c8.8,0,17.3,6.3,24.8,17.1
		c8.6,12.4,15.4,30.3,19.5,51.6c0.8,4.1,4.7,6.7,8.8,6c3.1-0.6,5.4-3.1,6-6c4.1-21.3,10.9-39.1,19.5-51.5
		c7.5-10.8,16-17.1,24.8-17.1s17.3,6.3,24.8,17.1c8.6,12.4,15.4,30.3,19.5,51.6c0.8,4.1,4.7,6.7,8.8,6c3.1-0.6,5.4-3.1,6-6
		c4.1-21.3,10.9-39.1,19.5-51.5c5.6-8.1,11.9-13.7,18.4-16c1.6,6,4.7,11.4,9,15.7c6.2,6.2,14.8,10.1,24.3,10.1
		c9.5,0,18.1-3.9,24.3-10.1c6.2-6.2,10.1-14.8,10.1-24.3c0-9.5-3.9-18.1-10.1-24.3c-6.2-6.2-14.8-10.1-24.3-10.1
		s-18.1,3.9-24.3,10.1c-4.7,4.7-8,10.7-9.4,17.5c-11.4,2.3-21.7,10.4-30.3,22.8c-5.6,8.1-10.5,18.2-14.6,29.7
		c-4-11.5-9-21.6-14.6-29.7c-10.3-14.9-23-23.6-37.1-23.6s-26.8,8.7-37.1,23.6c-5.6,8.1-10.5,18.2-14.6,29.7
		c-4-11.5-9-21.6-14.6-29.7c-10.3-14.9-23-23.6-37.1-23.6s-26.8,8.7-37.1,23.6c-9.8,14.1-17.4,34-21.9,57.3c-0.8,4.1,1.9,8,6,8.8
		C52.5,168,56.4,165.3,57.2,161.2z M321.4,71.4c3.5-3.5,8.4-5.7,13.7-5.7c5.4,0,10.2,2.2,13.7,5.7c3.5,3.5,5.7,8.3,5.7,13.7
		c0,5.3-2.2,10.2-5.7,13.7c-3.5,3.5-8.3,5.6-13.7,5.6c-5.3,0-10.2-2.2-13.7-5.6c-3.5-3.5-5.6-8.4-5.6-13.7
		C315.8,79.7,317.9,74.9,321.4,71.4z"/>
	<path d="M398.6,11.2C391.7,4.3,382.2,0,371.7,0H38c-10.5,0-20,4.3-26.9,11.2C4.3,18.1,0,27.6,0,38.1v73c0,4.1,3.3,7.5,7.5,7.5
		c4.1,0,7.5-3.3,7.5-7.5h0v-73c0-6.3,2.6-12.1,6.8-16.3c4.2-4.2,10-6.8,16.3-6.8h333.7c6.3,0,12.1,2.6,16.3,6.8
		c4.2,4.2,6.8,10,6.8,16.3v73c0,4.1,3.4,7.5,7.5,7.5s7.5-3.3,7.5-7.5v-73C409.8,27.6,405.5,18.1,398.6,11.2z"/>
	<path d="M409.4,142.8c0-0.1-0.1-0.1-0.1-0.2c-0.1-0.2-0.1-0.3-0.2-0.5c-0.2-0.4-0.4-0.8-0.7-1.2c0,0,0,0,0-0.1
		c-0.1-0.1-0.2-0.2-0.2-0.3c-0.1-0.1-0.1-0.2-0.2-0.3c-0.3-0.3-0.6-0.6-0.9-0.9c0,0-0.1-0.1-0.1-0.1c-0.1-0.1-0.3-0.2-0.4-0.3
		c0,0-0.1-0.1-0.1-0.1c-0.1-0.1-0.2-0.1-0.3-0.2c-0.1-0.1-0.2-0.1-0.3-0.2c0,0-0.1,0-0.1,0c-0.2-0.1-0.4-0.2-0.6-0.3
		c-0.1,0-0.1,0-0.2-0.1c-0.2-0.1-0.3-0.1-0.5-0.2c-0.7-0.2-1.5-0.3-2.2-0.3c-0.5,0-1,0.1-1.5,0.2c-0.2,0-0.5,0.1-0.7,0.2
		c-3.1,0.9-5.3,3.8-5.3,7.1v65.5H15V145c0-3.4-2.2-6.2-5.3-7.1c-0.2-0.1-0.5-0.1-0.7-0.2c-0.5-0.1-1-0.2-1.5-0.2
		c-0.8,0-1.5,0.1-2.2,0.3c-0.2,0.1-0.3,0.1-0.5,0.2c-0.1,0-0.1,0-0.2,0.1c-0.2,0.1-0.4,0.2-0.6,0.3c0,0-0.1,0-0.1,0
		c-0.1,0.1-0.2,0.1-0.3,0.2c-0.1,0.1-0.2,0.1-0.3,0.2c0,0-0.1,0.1-0.1,0.1c-0.2,0.1-0.3,0.2-0.4,0.3c0,0-0.1,0.1-0.1,0.1
		c-0.3,0.3-0.6,0.6-0.9,0.9c-0.1,0.1-0.1,0.2-0.2,0.3c-0.1,0.1-0.2,0.2-0.2,0.3c0,0,0,0,0,0.1c-0.3,0.4-0.5,0.8-0.7,1.2
		c-0.1,0.2-0.1,0.3-0.2,0.5c0,0.1-0.1,0.1-0.1,0.2c0,0.1,0,0.1-0.1,0.2c-0.2,0.6-0.3,1.3-0.3,2v73v22.8v2.4c0,10.5,4.3,20,11.2,26.9
		c6.9,6.9,16.4,11.2,26.9,11.2h114.7v44.1h-22c-6.6,0-12.5,2.7-16.8,7c-4.3,4.3-7,10.3-7,16.8c0,6.5,2.7,12.5,7,16.8
		c4.3,4.3,10.3,7,16.8,7h66.6h0h15h0H279c6.6,0,12.5-2.7,16.8-7c4.3-4.3,7-10.3,7-16.8c0-6.5-2.7-12.5-7-16.8
		c-4.3-4.3-10.3-7-16.8-7h-22v-44.1h114.7c10.5,0,20-4.3,26.9-11.2c6.9-6.9,11.2-16.4,11.2-26.9v-2.4V218v-73c0-0.7-0.1-1.4-0.3-2
		C409.5,142.9,409.5,142.9,409.4,142.8z M279,340.4c2.4,0,4.6,1,6.2,2.6c1.6,1.6,2.6,3.8,2.6,6.2c0,2.4-1,4.6-2.6,6.2
		c-1.6,1.6-3.8,2.6-6.2,2.6H130.7c-2.4,0-4.6-1-6.2-2.6c-1.6-1.6-2.6-3.8-2.6-6.2c0-2.4,1-4.6,2.6-6.2c1.6-1.6,3.8-2.6,6.2-2.6H279z
		 M167.8,325.4v-44.1H242v44.1H167.8z M394.8,243.2c0,6.3-2.6,12.1-6.8,16.3c-4.2,4.2-9.9,6.8-16.3,6.8H209.5h-9.1H38
		c-6.3,0-12.1-2.6-16.3-6.8c-4.2-4.2-6.8-9.9-6.8-16.3v-17.7h379.8V243.2z"/>
</g>
</svg>
