<svg class="card__content-icon" id="Layer_1" enable-background="new 0 0 512 512"  viewBox="0 0 512 512"  xmlns="http://www.w3.org/2000/svg"><g><path d="m440.6 0h-285.1c-4.1 0-7.5 3.4-7.5 7.5s3.4 7.5 7.5 7.5h285.1c4.4 0 7.9 3.5 7.9 7.9v466.2c0 4.4-3.5 7.9-7.9 7.9h-369.2c-4.4 0-7.9-3.5-7.9-7.9v-466.2c0-4.4 3.5-7.9 7.9-7.9h49.2c4.1 0 7.5-3.4 7.5-7.5s-3.4-7.5-7.5-7.5h-49.2c-12.6 0-22.9 10.3-22.9 22.9v466.2c0 12.6 10.3 22.9 22.9 22.9h369.2c12.6 0 22.9-10.3 22.9-22.9v-466.2c0-12.6-10.3-22.9-22.9-22.9z"/><path d="m426 136.8c4.1 0 7.5-3.4 7.5-7.5v-91.8c0-4.1-3.4-7.5-7.5-7.5h-340c-4.1 0-7.5 3.4-7.5 7.5v433c0 4.1 3.4 7.5 7.5 7.5h101.7c4.1 0 7.5-3.4 7.5-7.5s-3.4-7.5-7.5-7.5h-94.2v-33.5l61.1-61.1c1.2.6 2.3 1.8 4.3 4 3.4 3.8 8.5 9.5 18.1 9.5s14.7-5.7 18.1-9.5c3.2-3.6 4.3-4.5 6.8-4.5 2.6 0 3.7.9 6.9 4.5 3.4 3.8 8.5 9.5 18.1 9.5s14.7-5.7 18.1-9.5c2-2.3 3.2-3.5 4.5-4.1l32.3 32.3-24.8 24.6c-2.9 2.9-2.9 7.7 0 10.6s7.7 2.9 10.6 0l53.5-53.5c1.3.6 2.4 1.8 4.5 4.1 3.4 3.8 8.5 9.5 18.1 9.5s14.7-5.7 18.1-9.5c2-2.3 3.2-3.5 4.5-4.1l52.4 52.4v28.3h-195.8c-4.1 0-7.5 3.4-7.5 7.5s3.4 7.5 7.5 7.5h203.1c4.1 0 7.5-3.4 7.5-7.5v-306.3c0-4.1-3.4-7.5-7.5-7.5s-7.5 3.4-7.5 7.5v249.3l-69.6-69.6c-2.9-2.9-7.7-2.9-10.6 0l-46.2 46.1-84.9-84.9c-2.9-2.9-7.7-2.9-10.6 0l-103.1 103.2v-363.3h325v84.3c0 4.2 3.4 7.5 7.5 7.5zm-82.4 223 11.8 11.8c-2 1.6-3.6 3.4-4.9 4.9-3.2 3.6-4.3 4.5-6.8 4.5s-3.7-.9-6.8-4.5c-1.3-1.5-2.9-3.3-4.9-4.9zm-141.6-38.7 36.5 36.5c-2 1.6-3.6 3.4-4.9 4.9-3.2 3.6-4.3 4.5-6.9 4.5s-3.7-.9-6.9-4.5c-3.4-3.8-8.5-9.5-18.1-9.5s-14.7 5.7-18.1 9.5c-3.2 3.6-4.3 4.5-6.8 4.5s-3.7-.9-6.8-4.5c-1.3-1.4-2.8-3.2-4.7-4.7z"/><path d="m363.5 179c0-15.2-25.7-27.6-49.8-34.3-1.6-17.1-10.3-29.9-25.5-37.4-12.2-6-25.4-6.9-32.2-6.9-.8 0-1.7 0-2.8 0-4.1.1-7.4 3.6-7.2 7.7.1 4.1 3.6 7.4 7.7 7.2h2.2c12.2 0 39.6 3 42.7 29.9-13 4.2-49.8 13.7-85.4.2 1-9.4 4.8-16.5 11.7-21.6 3.3-2.5 4-7.2 1.6-10.5-2.5-3.3-7.2-4-10.5-1.6-10.4 7.6-16.5 18.9-17.8 32.8-24.1 6.7-49.8 19.1-49.8 34.3 0 14.1 23.7 28 55.6 35.7 3.9 18.5 25.3 32.2 51.9 32.2s48.1-13.7 51.9-32.2c32-7.4 55.7-21.4 55.7-35.5zm-107.5 53c-14.9 0-28.1-5.7-34.1-13.7 11 1.7 22.5 2.6 34.1 2.6s23.1-.9 34.1-2.6c-6 8-19.2 13.7-34.1 13.7zm65.9-37.1c-19.4 7.1-42.8 11-65.9 11s-46.5-3.9-65.9-11c-17.9-6.5-25.5-13.4-26.6-15.9 1.3-3.1 13.1-13.2 41.4-20.5 16.7 6.9 33.6 9.2 48.7 9.2 25.7 0 46.4-6.7 53.3-9.2 28.4 7.3 40.2 17.4 41.5 20.5-1 2.5-8.7 9.4-26.5 15.9z"/><path d="m135.5 247h20c4.1 0 7.5-3.4 7.5-7.5s-3.4-7.5-7.5-7.5h-20c-4.1 0-7.5 3.4-7.5 7.5s3.4 7.5 7.5 7.5z"/><path d="m262.5 77h20c4.1 0 7.5-3.4 7.5-7.5s-3.4-7.5-7.5-7.5h-20c-4.1 0-7.5 3.4-7.5 7.5s3.4 7.5 7.5 7.5z"/><path d="m302.5 268h-20c-4.1 0-7.5 3.4-7.5 7.5s3.4 7.5 7.5 7.5h20c4.1 0 7.5-3.4 7.5-7.5s-3.4-7.5-7.5-7.5z"/><path d="m353.5 242h20c4.1 0 7.5-3.4 7.5-7.5s-3.4-7.5-7.5-7.5h-20c-4.1 0-7.5 3.4-7.5 7.5s3.4 7.5 7.5 7.5z"/><path d="m391 93.4c0-4.1-3.4-7.5-7.5-7.5h-20c-4.1 0-7.5 3.4-7.5 7.5s3.4 7.5 7.5 7.5h20c4.1 0 7.5-3.3 7.5-7.5z"/><path d="m152 96.9c4.1 0 7.5-3.4 7.5-7.5s-3.4-7.5-7.5-7.5h-20c-4.1 0-7.5 3.4-7.5 7.5s3.4 7.5 7.5 7.5z"/><circle cx="256" cy="186.5" r="7.5"/><circle cx="216.5" cy="182.5" r="7.5"/><circle cx="295.5" cy="182.5" r="7.5"/></g></svg>